<?xml version="1.0" encoding="UTF-8"?>
<svg id="Layer_1" data-name="Layer 1" xmlns="http://www.w3.org/2000/svg" viewBox="0 0 1871.8 814.49">
  <path d="m83.79,417.74v-6.18l25.26-6.13c16.84-3.68,25.26-13.95,25.26-30.8V23.43h-52.35c-15.2,0-26.1,4.02-32.68,12.04-6.56,8-13.53,18.96-20.91,32.89L6.18,111.53H0L3.12,11.07h355.49l2.47,100.46h-6.18l-22.2-43.16c-6.99-13.93-13.76-24.9-20.32-32.89-6.56-8.02-17.45-12.04-32.68-12.04h-52.35v351.19c0,16.85,8.41,27.12,25.26,30.8l25.26,6.13v6.18H83.79Z" style="fill: #fd0; stroke-width: 0px;"/>
  <path d="m580.4,428.81c-25.05,0-49.18-4.51-72.4-13.54-23.19-9.03-43.94-22.47-62.24-40.31-18.27-17.87-32.76-40.16-43.43-66.86-10.68-26.73-16.02-57.95-16.02-93.68s5.33-66.34,16.02-93.04c10.67-26.69,25.26-48.97,43.75-66.81,18.49-17.87,39.32-31.44,62.51-40.69,23.22-9.24,47.15-13.87,71.81-13.87s49.18,4.43,72.4,13.28c23.22,8.81,43.97,22.17,62.24,40.04,18.27,17.84,32.75,40.23,43.43,67.13,10.67,26.91,16.02,58.24,16.02,93.95s-5.35,65.87-16.02,92.77c-10.68,26.87-25.15,49.26-43.43,67.13-18.27,17.84-39.02,31.39-62.24,40.63-23.22,9.24-47.35,13.87-72.4,13.87Zm0-12.9c22.6,0,40.88-6.05,54.82-18.17,13.97-12.15,24.13-32.89,30.48-62.24,6.37-29.37,9.57-69.74,9.57-121.1s-3.2-92.29-9.57-121.63c-6.34-29.37-16.5-50.12-30.48-62.24-13.95-12.15-32.22-18.22-54.82-18.22s-40.26,6.07-54.23,18.22c-13.95,12.12-24.11,32.87-30.48,62.24-6.38,29.35-9.57,69.9-9.57,121.63s3.18,91.72,9.57,121.1c6.37,29.35,16.53,50.09,30.48,62.24,13.97,12.12,32.05,18.17,54.23,18.17Z" style="fill: #fd0; stroke-width: 0px;"/>
  <path d="m932.84,428.81c-22.61,0-45.63-2.78-69.07-8.33-23.41-5.51-42.89-12.79-58.48-21.82l3.06-83.79h6.18l19.08,40.04c5.76,11.5,11.93,21.69,18.49,30.53,6.56,8.81,15.59,15.68,27.09,20.59,8.24,4.13,16.15,6.91,23.76,8.33,7.59,1.44,16.1,2.15,25.53,2.15,25.07,0,44.91-6.77,59.5-20.32,14.58-13.54,21.88-31.01,21.88-52.41,0-20.1-4.94-35.8-14.83-47.08-9.86-11.31-25.67-22.32-47.41-33l-25.26-11.07c-35.34-15.61-62.97-33.59-82.88-53.91-19.93-20.34-29.88-47.35-29.88-81,0-24.25,6.25-45.22,18.76-62.89,12.54-17.66,30.01-31.2,52.41-40.63,22.39-9.46,48.59-14.19,78.58-14.19,21.74,0,42.37,2.89,61.86,8.65,19.52,5.74,36.47,13.53,50.85,23.38l-3.65,73.96h-6.18l-25.26-46.22c-6.99-14.36-13.97-24.52-20.96-30.48-6.99-5.98-15-10.19-24.03-12.63-5.35-1.64-10.27-2.77-14.78-3.39-4.51-.64-10.27-.97-17.25-.97-20.96,0-38.63,6.07-53,18.22-14.38,12.12-21.55,28.43-21.55,48.97s5.54,37.66,16.61,50.2c11.1,12.55,27.33,23.74,48.7,33.59l28.33,12.31c39.45,17.24,67.79,35.62,85.03,55.15,17.27,19.5,25.91,44.65,25.91,75.46,0,36.16-13.68,65.63-41.01,88.42-27.3,22.79-66,34.18-116.1,34.18Z" style="fill: #fd0; stroke-width: 0px;"/>
  <path d="m1333.28,428.81c-39.81,0-75.84-8.1-108.09-24.29-32.25-16.23-57.83-40.37-76.75-72.4-18.89-32.03-28.33-71.27-28.33-117.71,0-35.33,5.75-66.34,17.25-93.04,11.5-26.69,27.21-49.07,47.14-67.13,19.91-18.09,42.92-31.66,69.01-40.69,26.08-9.03,53.71-13.54,82.88-13.54,23.39,0,44.95,2.67,64.66,8.01,19.74,5.35,38.23,12.74,55.47,22.2l2.47,75.79h-6.18l-30.8-49.29c-4.13-7.81-8.65-14.89-13.6-21.23-4.92-6.37-11.06-11.21-18.44-14.51-6.17-2.86-12.23-5.01-18.17-6.45-5.95-1.46-13.46-2.2-22.52-2.2-23.8,0-45.46,6.38-64.98,19.13-19.5,12.73-35.1,33.78-46.82,63.15-11.72,29.35-17.58,69.5-17.58,120.45s5.54,90.49,16.61,119.86c11.1,29.35,26.2,50.3,45.31,62.83,19.09,12.51,40.55,18.76,64.39,18.76,13.14,0,23.62-.91,31.44-2.74,7.81-1.85,15.6-4.64,23.38-8.33,7.81-3.29,13.76-8.12,17.84-14.46,4.11-6.37,7.82-13.28,11.13-20.69l27.14-60.36h6.13l-1.83,88.09c-17.28,9.03-36.59,16.42-57.94,22.14-21.37,5.76-44.77,8.65-70.25,8.65Z" style="fill: #fd0; stroke-width: 0px;"/>
  <path d="m1484.27,417.74v-6.18l15.37-5.54c8.24-3.29,14.62-7.28,19.13-11.99,4.51-4.73,8.2-11.41,11.07-20.05L1656.75,9.84h52.41l125.07,366.62c3.25,9.03,6.95,15.91,11.07,20.64,4.11,4.73,10.48,8.75,19.08,12.04l7.42,2.42v6.18h-156.52v-6.18l9.24-3.06c8.63-3.29,13.87-7.91,15.69-13.87,1.85-5.94,1.56-13.02-.91-21.23l-28.92-88.74h-136.79l-29.56,86.86c-2.9,9.03-3.84,16.22-2.79,21.55,1.03,5.35,5.86,9.66,14.46,12.95l13.6,5.54v6.18h-85.03Zm93.63-145.39h128.78l-62.24-191.61-66.54,191.61Z" style="fill: #fd0; stroke-width: 0px;"/>
  <path d="m0,806.45v-4.49l8.94-3.55c5.99-2.11,9.94-4.94,11.87-8.51,1.95-3.59,2.93-8.37,2.93-14.33v-233.71c0-5.96-.9-10.72-2.69-14.29-1.8-3.59-5.84-6.42-12.11-8.51L0,515.45v-4.49h115.06v4.49l-8.94,3.59c-5.97,2.09-9.92,4.92-11.87,8.51-1.93,3.57-2.89,8.34-2.89,14.29v233.71c0,5.97.96,10.66,2.89,14.1,1.95,3.44,5.91,6.36,11.87,8.75l8.94,3.55v4.49H0Z" style="fill: #fd0; stroke-width: 0px;"/>
  <path d="m140.57,806.45v-4.49l14.76-4.45c5.39-1.5,9.27-4.42,11.64-8.75,2.39-4.32,3.59-9.46,3.59-15.43v-215.35c-3.28-7.16-5.9-12.52-7.85-16.09-1.93-3.59-4.09-6.65-6.48-9.18-2.37-2.55-5.65-5.76-9.84-9.65l-7.62-7.62v-4.49h79.24l148.64,202.81v-168.76c0-5.99-.98-11.37-2.93-16.13-1.93-4.76-5.88-7.9-11.83-9.41l-14.8-4.02v-4.49h64.05v4.49l-12.11,4.02c-5.37,1.8-8.65,4.94-9.84,9.41-1.2,4.48-1.8,9.71-1.8,15.66v263.23h-25.07l-171.02-235.03v200.59c0,5.97.9,11.04,2.69,15.23,1.8,4.17,5.53,7.15,11.21,8.94l13.43,4.45v4.49h-68.07Z" style="fill: #fd0; stroke-width: 0px;"/>
  <path d="m664.82,814.49c-18.2,0-35.74-3.28-52.61-9.84-16.85-6.56-31.93-16.33-45.23-29.29-13.28-12.99-23.8-29.18-31.56-48.58-7.76-19.42-11.64-42.11-11.64-68.07s3.88-48.2,11.64-67.6c7.75-19.39,18.36-35.58,31.79-48.55,13.43-12.99,28.57-22.85,45.42-29.56,16.87-6.72,34.26-10.08,52.18-10.08s35.74,3.22,52.61,9.65c16.87,6.41,31.95,16.11,45.23,29.1,13.28,12.97,23.79,29.23,31.56,48.78,7.75,19.56,11.64,42.32,11.64,68.27s-3.89,47.86-11.64,67.41c-7.76,19.53-18.28,35.79-31.56,48.78-13.28,12.97-28.35,22.81-45.23,29.53s-34.41,10.08-52.61,10.08Zm0-9.37c16.42,0,29.7-4.39,39.84-13.2,10.15-8.83,17.54-23.9,22.14-45.23,4.63-21.34,6.95-50.67,6.95-87.99s-2.32-67.06-6.95-88.38c-4.61-21.34-11.99-36.42-22.14-45.23-10.13-8.83-23.41-13.24-39.84-13.24s-29.25,4.41-39.41,13.24c-10.13,8.81-17.52,23.88-22.14,45.23-4.64,21.32-6.95,50.79-6.95,88.38s2.31,66.65,6.95,87.99c4.63,21.32,12.01,36.4,22.14,45.23,10.15,8.81,23.29,13.2,39.41,13.2Z" style="fill: #fd0; stroke-width: 0px;"/>
  <path d="m824.65,806.45v-4.49l9.41-3.55c9.55-3.88,14.33-11.49,14.33-22.85v-233.71c0-11.92-4.78-19.53-14.33-22.81l-9.41-3.59v-4.49h118.18c31.63,0,58.87,5.9,81.7,17.69,22.83,11.79,40.44,28.67,52.84,50.62,12.39,21.93,18.59,48.26,18.59,79.01s-6.72,58.04-20.15,80.14c-13.43,22.09-32.17,38.94-56.2,50.58-24.01,11.64-52.28,17.46-84.83,17.46h-110.14Zm90.88-8.94h19.25c21.48,0,38.78-4.26,51.9-12.77,13.14-8.51,22.78-22.83,28.9-42.96,6.11-20.15,9.18-47.84,9.18-83.07s-3.07-62.88-9.18-83.03c-6.12-20.15-15.6-34.47-28.43-42.96-12.84-8.51-29.7-12.77-50.58-12.77h-21.05v277.56Z" style="fill: #fd0; stroke-width: 0px;"/>
  <path d="m1114.75,806.45v-4.49l10.31-4.02c5.08-2.08,8.57-4.84,10.51-8.28,1.95-3.44,2.93-8.13,2.93-14.1v-233.71c0-5.96-.82-10.66-2.46-14.1s-5.3-6.19-10.97-8.28l-10.31-4.02v-4.49h214.45l2.69,68.97h-4.49l-19.25-42.1c-2.69-5.36-5.53-9.69-8.51-12.97-2.97-3.28-7.44-4.92-13.4-4.92h-80.61v129.35h47.92c5.96,0,10.51-1.56,13.63-4.69,3.14-3.12,5.91-7.38,8.28-12.77l8.98-17.89h4.45v80.57h-4.45l-8.98-18.79c-2.69-5.39-5.53-9.65-8.51-12.77-2.97-3.12-7.44-4.69-13.4-4.69h-47.92v139.23h90.45c5.96,0,10.58-1.56,13.86-4.69,3.28-3.14,5.96-7.56,8.05-13.24l18.36-42.06h4.49l-2.69,68.93h-223.4Z" style="fill: #fd0; stroke-width: 0px;"/>
  <path d="m1459.49,814.49c-16.43,0-33.16-2.02-50.19-6.05-17.01-4-31.17-9.3-42.49-15.86l2.23-60.89h4.49l13.86,29.1c4.19,8.36,8.67,15.76,13.43,22.18,4.76,6.41,11.33,11.39,19.68,14.96,5.99,3,11.74,5.02,17.26,6.05,5.52,1.04,11.7,1.56,18.55,1.56,18.22,0,32.63-4.92,43.23-14.76,10.59-9.84,15.9-22.53,15.9-38.08,0-14.61-3.59-26.01-10.78-34.21-7.17-8.22-18.65-16.22-34.45-23.98l-18.36-8.05c-25.68-11.35-45.75-24.41-60.22-39.17-14.48-14.78-21.71-34.41-21.71-58.86,0-17.62,4.54-32.86,13.63-45.69,9.11-12.83,21.8-22.67,38.08-29.53,16.27-6.87,35.31-10.31,57.1-10.31,15.8,0,30.79,2.1,44.95,6.29,14.19,4.17,26.5,9.83,36.95,16.99l-2.66,53.74h-4.49l-18.36-33.59c-5.08-10.44-10.15-17.82-15.23-22.14-5.08-4.34-10.9-7.4-17.46-9.18-3.89-1.19-7.46-2.01-10.74-2.46-3.28-.47-7.46-.7-12.54-.7-15.23,0-28.07,4.41-38.51,13.24-10.45,8.81-15.66,20.66-15.66,35.58s4.02,27.37,12.07,36.48c8.06,9.12,19.86,17.25,35.38,24.41l20.58,8.94c28.67,12.53,49.26,25.88,61.79,40.07,12.55,14.17,18.82,32.45,18.82,54.83,0,26.27-9.94,47.69-29.8,64.25-19.84,16.56-47.96,24.84-84.36,24.84Z" style="fill: #fd0; stroke-width: 0px;"/>
  <path d="m1590.22,806.45v-4.49l11.17-4.02c5.99-2.39,10.62-5.29,13.9-8.71,3.28-3.44,5.96-8.29,8.05-14.57l92.21-264.6h38.08l90.88,266.39c2.36,6.56,5.05,11.56,8.05,15,2.99,3.44,7.62,6.36,13.86,8.75l5.39,1.76v4.49h-113.73v-4.49l6.72-2.23c6.27-2.39,10.08-5.75,11.4-10.08,1.35-4.32,1.13-9.46-.66-15.43l-21.01-64.48h-99.4l-21.48,63.11c-2.11,6.56-2.79,11.78-2.03,15.66.75,3.89,4.26,7.02,10.51,9.41l9.88,4.02v4.49h-61.79Zm68.03-105.64h93.58l-45.23-139.23-48.35,139.23Z" style="fill: #fd0; stroke-width: 0px;"/>
</svg>